<?xml version="1.0" encoding="UTF-8"?>
<svg width="67px" height="40px" viewBox="0 0 67 40" version="1.1" xmlns="http://www.w3.org/2000/svg" xmlns:xlink="http://www.w3.org/1999/xlink">
    <title>Logos/Third-Party/Amazon_Web_Services_Logo</title>
    <g id="🗻-Logos" stroke="none" stroke-width="1" fill="none" fill-rule="evenodd">
        <g id="Third-Party-Logos" transform="translate(-66.000000, -223.000000)">
            <g id="Group" transform="translate(34.000000, 223.000000)">
                <g id="Amazon_Web_Services_Logo" transform="translate(32.500000, 0.000000)">
                    <path d="M18.8520971,14.4370861 C18.8520971,15.2538631 18.9403974,15.9161148 19.0949227,16.401766 C19.2715232,16.8874172 19.4922737,17.4172185 19.8013245,17.99117 C19.9116998,18.1677704 19.9558499,18.3443709 19.9558499,18.4988962 C19.9558499,18.7196468 19.8233996,18.9403974 19.5364238,19.1611479 L18.1456954,20.0883002 C17.9470199,20.2207506 17.7483444,20.2869757 17.5717439,20.2869757 C17.3509934,20.2869757 17.1302428,20.1766004 16.9094923,19.9779249 C16.6004415,19.6467991 16.3355408,19.2935982 16.1147903,18.9403974 C15.8940397,18.5651214 15.6732892,18.1456954 15.4304636,17.6379691 C13.7086093,19.6688742 11.5452539,20.6843267 8.94039735,20.6843267 C7.08609272,20.6843267 5.60706402,20.1545254 4.52538631,19.0949227 C3.44370861,18.0353201 2.89183223,16.6225166 2.89183223,14.8565121 C2.89183223,12.9801325 3.55408389,11.4569536 4.90066225,10.3090508 C6.24724062,9.1611479 8.03532009,8.58719647 10.3090508,8.58719647 C11.0596026,8.58719647 11.8322296,8.65342163 12.6490066,8.76379691 C13.4657837,8.87417219 14.3046358,9.05077263 15.187638,9.24944812 L15.187638,7.63796909 C15.187638,5.9602649 14.8344371,4.79028698 14.1501104,4.10596026 C13.4437086,3.42163355 12.2516556,3.09050773 10.5518764,3.09050773 C9.77924945,3.09050773 8.98454746,3.17880795 8.16777042,3.37748344 C7.35099338,3.57615894 6.55629139,3.81898455 5.78366446,4.12803532 C5.43046358,4.28256071 5.16556291,4.37086093 5.01103753,4.41501104 C4.85651214,4.45916115 4.74613687,4.4812362 4.65783664,4.4812362 C4.34878587,4.4812362 4.19426049,4.26048565 4.19426049,3.79690949 L4.19426049,2.71523179 C4.19426049,2.36203091 4.2384106,2.09713024 4.34878587,1.94260486 C4.45916115,1.78807947 4.65783664,1.63355408 4.96688742,1.4790287 C5.73951435,1.0816777 6.66666667,0.750551876 7.74834437,0.485651214 C8.83002208,0.198675497 9.97792494,0.0662251656 11.192053,0.0662251656 C13.8189845,0.0662251656 15.7395143,0.662251656 16.9757174,1.85430464 C18.1898455,3.04635762 18.807947,4.85651214 18.807947,7.28476821 L18.807947,14.4370861 L18.8520971,14.4370861 Z M9.88962472,17.7924945 C10.6181015,17.7924945 11.3686534,17.6600442 12.1633554,17.3951435 C12.9580574,17.1302428 13.6644592,16.6445916 14.2604857,15.98234 C14.6136865,15.5629139 14.8785872,15.0993377 15.0110375,14.5695364 C15.1434879,14.0397351 15.2317881,13.3995585 15.2317881,12.6490066 L15.2317881,11.7218543 C14.5916115,11.5673289 13.9072848,11.4348786 13.200883,11.3465784 C12.4944812,11.2582781 11.8101545,11.214128 11.1258278,11.214128 C9.64679912,11.214128 8.56512141,11.5011038 7.83664459,12.0971302 C7.10816777,12.6931567 6.75496689,13.5320088 6.75496689,14.6357616 C6.75496689,15.6732892 7.01986755,16.4459161 7.57174393,16.9757174 C8.10154525,17.5275938 8.87417219,17.7924945 9.88962472,17.7924945 Z M27.615894,20.1766004 C27.218543,20.1766004 26.9536424,20.1103753 26.7770419,19.9558499 C26.6004415,19.8233996 26.4459161,19.5143488 26.3134658,19.0949227 L21.1258278,2.03090508 C20.9933775,1.58940397 20.9271523,1.30242826 20.9271523,1.14790287 C20.9271523,0.794701987 21.1037528,0.59602649 21.4569536,0.59602649 L23.6203091,0.59602649 C24.0397351,0.59602649 24.3267108,0.662251656 24.4812362,0.816777042 C24.6578366,0.949227373 24.790287,1.25827815 24.9227373,1.67770419 L28.6313466,16.2913907 L32.0750552,1.67770419 C32.1854305,1.23620309 32.3178808,0.949227373 32.4944812,0.816777042 C32.6710817,0.684326711 32.9801325,0.59602649 33.3774834,0.59602649 L35.1434879,0.59602649 C35.5629139,0.59602649 35.8498896,0.662251656 36.0264901,0.816777042 C36.2030905,0.949227373 36.3576159,1.25827815 36.4459161,1.67770419 L39.9337748,16.4679912 L43.7527594,1.67770419 C43.8852097,1.23620309 44.0397351,0.949227373 44.1942605,0.816777042 C44.3708609,0.684326711 44.6578366,0.59602649 45.0551876,0.59602649 L47.1081678,0.59602649 C47.4613687,0.59602649 47.6600442,0.772626932 47.6600442,1.14790287 C47.6600442,1.25827815 47.6379691,1.36865342 47.615894,1.50110375 C47.593819,1.63355408 47.5496689,1.81015453 47.4613687,2.05298013 L42.1412804,19.1169978 C42.00883,19.5584989 41.8543046,19.8454746 41.6777042,19.9779249 C41.5011038,20.1103753 41.214128,20.1986755 40.8388521,20.1986755 L38.9403974,20.1986755 C38.5209713,20.1986755 38.2339956,20.1324503 38.0573951,19.9779249 C37.8807947,19.8233996 37.7262693,19.5364238 37.6379691,19.0949227 L34.2163355,4.85651214 L30.816777,19.0728477 C30.7064018,19.5143488 30.5739514,19.8013245 30.397351,19.9558499 C30.2207506,20.1103753 29.9116998,20.1766004 29.5143488,20.1766004 L27.615894,20.1766004 Z M55.98234,20.7726269 C54.8344371,20.7726269 53.6865342,20.6401766 52.5827815,20.3752759 C51.4790287,20.1103753 50.6181015,19.8233996 50.0441501,19.4922737 C49.6909492,19.2935982 49.4481236,19.0728477 49.3598234,18.8741722 C49.2715232,18.6754967 49.2273731,18.4547461 49.2273731,18.2560706 L49.2273731,17.1302428 C49.2273731,16.6666667 49.4039735,16.4459161 49.7350993,16.4459161 C49.8675497,16.4459161 50,16.4679912 50.1324503,16.5121413 C50.2649007,16.5562914 50.4635762,16.6445916 50.6843267,16.7328918 C51.4348786,17.0640177 52.2516556,17.3289183 53.1125828,17.5055188 C53.995585,17.6821192 54.8565121,17.7704194 55.7395143,17.7704194 C57.1302428,17.7704194 58.2119205,17.5275938 58.9624724,17.0419426 C59.7130243,16.5562914 60.1103753,15.8498896 60.1103753,14.9448124 C60.1103753,14.3267108 59.9116998,13.8189845 59.5143488,13.3995585 C59.1169978,12.9801325 58.3664459,12.6048565 57.2847682,12.2516556 L54.0838852,11.2582781 C52.4724062,10.7505519 51.2803532,10 50.5518764,9.00662252 C49.8233996,8.03532009 49.4481236,6.95364238 49.4481236,5.80573951 C49.4481236,4.8785872 49.6467991,4.06181015 50.0441501,3.35540839 C50.4415011,2.64900662 50.9713024,2.03090508 51.6335541,1.54525386 C52.2958057,1.03752759 53.0463576,0.662251656 53.9293598,0.397350993 C54.812362,0.132450331 55.7395143,0.0220750552 56.7108168,0.0220750552 C57.196468,0.0220750552 57.7041943,0.0441501104 58.1898455,0.110375276 C58.6975717,0.176600442 59.1611479,0.264900662 59.6247241,0.353200883 C60.0662252,0.463576159 60.4856512,0.573951435 60.8830022,0.706401766 C61.2803532,0.838852097 61.589404,0.971302428 61.8101545,1.10375276 C62.1192053,1.2803532 62.3399558,1.45695364 62.4724062,1.65562914 C62.6048565,1.83222958 62.6710817,2.07505519 62.6710817,2.38410596 L62.6710817,3.42163355 C62.6710817,3.88520971 62.4944812,4.12803532 62.1633554,4.12803532 C61.986755,4.12803532 61.6997792,4.0397351 61.3245033,3.86313466 C60.0662252,3.28918322 58.6534216,3.00220751 57.0860927,3.00220751 C55.8278146,3.00220751 54.8344371,3.200883 54.1501104,3.62030905 C53.4657837,4.0397351 53.1125828,4.6799117 53.1125828,5.58498896 C53.1125828,6.20309051 53.3333333,6.73289183 53.7748344,7.15231788 C54.2163355,7.57174393 55.0331126,7.99116998 56.2030905,8.36644592 L59.3377483,9.3598234 C60.9271523,9.86754967 62.0750552,10.5739514 62.7593819,11.4790287 C63.4437086,12.384106 63.7748344,13.4216336 63.7748344,14.5695364 C63.7748344,15.5187638 63.5761589,16.3796909 63.200883,17.1302428 C62.803532,17.8807947 62.2737307,18.5430464 61.589404,19.0728477 C60.9050773,19.6247241 60.0883002,20.0220751 59.1390728,20.3090508 C58.1456954,20.6181015 57.1081678,20.7726269 55.98234,20.7726269 Z" id="Shape" fill="#252F3E" fill-rule="nonzero"></path>
                    <g id="Group" transform="translate(0.000000, 24.724062)" fill="#FF9900">
                        <path d="M60.1545254,6.77704194 C52.8918322,12.1412804 42.3399558,14.9889625 33.2671082,14.9889625 C20.5518764,14.9889625 9.09492274,10.2869757 0.441501104,2.47240618 C-0.242825607,1.85430464 0.375275938,1.01545254 1.19205298,1.50110375 C10.5518764,6.93156733 22.0971302,10.2207506 34.0397351,10.2207506 C42.0971302,10.2207506 50.9492274,8.54304636 59.0949227,5.09933775 C60.3090508,4.54746137 61.3465784,5.89403974 60.1545254,6.77704194 Z" id="Path"></path>
                        <path d="M63.1788079,3.33333333 C62.2516556,2.14128035 57.0419426,2.7593819 54.6799117,3.04635762 C53.9735099,3.13465784 53.8631347,2.51655629 54.5033113,2.05298013 C58.6534216,-0.860927152 65.4746137,-0.0220750552 66.2693157,0.949227373 C67.0640177,1.94260486 66.0485651,8.76379691 62.1633554,12.0309051 C61.5673289,12.5386313 60.9933775,12.2737307 61.2582781,11.611479 C62.1412804,9.42604857 64.1059603,4.50331126 63.1788079,3.33333333 Z" id="Path"></path>
                    </g>
                </g>
            </g>
        </g>
    </g>
</svg>