<?xml version="1.0" encoding="UTF-8"?>
<svg width="136px" height="40px" viewBox="0 0 136 40" version="1.1" xmlns="http://www.w3.org/2000/svg" xmlns:xlink="http://www.w3.org/1999/xlink">
    <title>Group</title>
    <g id="🗻-Logos" stroke="none" stroke-width="1" fill="none" fill-rule="evenodd">
        <g id="Third-Party-Logos" transform="translate(-170.000000, -223.000000)" fill-rule="nonzero">
            <g id="MS-Azure_logo_stacked_c-gray_rgb" transform="translate(170.000000, 223.000000)">
                <g id="Azure_s" transform="translate(46.115288, 21.710526)" fill="#737373">
                    <path d="M9.0877193,0.335526316 L14.8120301,15.2960526 L11.9047619,15.2960526 L10.5614035,11.5805921 L4.57142857,11.5805921 L3.27819549,15.2960526 L0.395989975,15.2960526 L6.12030075,0.335526316 L9.0877193,0.335526316 Z M7.51879699,3.10855263 L5.27318296,9.40953947 L9.82957393,9.40953947 L7.59398496,3.10855263 L7.51879699,3.10855263 Z" id="Shape"></path>
                    <polygon id="Path" points="16.0952381 4.56907895 24.7969925 4.56907895 24.7969925 5.55592105 19.0827068 13.2680921 24.8270677 13.2680921 24.8270677 15.2960526 15.6942356 15.2960526 15.6942356 14.0921053 21.3182957 6.57236842 16.0952381 6.57236842"></polygon>
                    <path d="M35.7393484,4.56907895 L35.7393484,15.2960526 L33.1578947,15.2960526 L33.1578947,13.8848684 L33.112782,13.8848684 C32.7680166,14.3774155 32.2978569,14.7721681 31.7493734,15.0296053 C31.1530913,15.3084241 30.4996661,15.4485438 29.839599,15.4391447 C28.7663468,15.5151011 27.712582,15.1279146 26.952381,14.3782895 C26.2840434,13.6743421 25.9498747,12.5773026 25.9498747,11.0871711 L25.9498747,4.56907895 L28.5714286,4.56907895 L28.5714286,10.7861842 C28.5186833,11.5078794 28.7108587,12.2263883 29.1177945,12.8289474 C29.5246427,13.3032812 30.1380551,13.5565585 30.7669173,13.5098684 C31.4353586,13.5356155 32.0786659,13.2572014 32.5112782,12.7549342 C32.9697615,12.1989121 33.2051759,11.4966816 33.1729323,10.78125 L33.1729323,4.56907895 L35.7393484,4.56907895 Z" id="Path"></path>
                    <path d="M43.4636591,4.39144737 C43.6484356,4.38987292 43.8329786,4.40473597 44.0150376,4.43585526 C44.1555804,4.45501377 44.2934678,4.48977463 44.4260652,4.53947368 L44.4260652,7.09539474 C44.2466242,6.9733849 44.0486829,6.88012409 43.839599,6.81907895 C43.5368981,6.7234695 43.220068,6.67843875 42.9022556,6.68585526 C42.2755712,6.68778156 41.6858468,6.97803651 41.3082707,7.47039474 C40.8182128,8.17627702 40.5882675,9.02596899 40.6566416,9.87828947 L40.6566416,15.3059211 L38.0952381,15.3059211 L38.0952381,4.56907895 L40.6616541,4.56907895 L40.6616541,6.26151316 L40.7017544,6.26151316 C40.9097922,5.71057504 41.2797182,5.23306291 41.764411,4.88980263 C42.2628079,4.55050518 42.8578877,4.37598025 43.4636591,4.39144737 L43.4636591,4.39144737 Z" id="Path"></path>
                    <path d="M53.6591479,12.5921053 L53.6591479,14.6694079 C53.1425558,14.9688684 52.5807948,15.1853981 51.9949875,15.3108553 C51.2754301,15.4765385 50.5384613,15.5576965 49.7994987,15.5526316 C48.3582083,15.6361115 46.9495934,15.1080519 45.9298246,14.1019737 C45.0075188,13.1381579 44.5463659,11.7927632 44.5463659,10.0657895 C44.487904,8.56159165 45.0170638,7.09250034 46.0250627,5.96052632 C46.9697972,4.90522199 48.3409616,4.31617884 49.7694236,4.35197368 C51.0849213,4.27976988 52.3667437,4.77727718 53.2781955,5.71381579 C54.1169591,6.62171053 54.53467,7.875 54.5313482,9.47368421 L54.5313482,10.6924342 L47.0776942,10.6924342 C47.1929825,11.7730263 47.5438596,12.5230263 48.1303258,12.9523026 C48.8015568,13.4041417 49.6036718,13.6292418 50.4160401,13.59375 C51.0138454,13.5961414 51.6080673,13.5028181 52.1754386,13.3174342 C52.7028259,13.1470478 53.2025278,12.9027625 53.6591479,12.5921053 Z M52.0150376,8.84703947 C52.0631407,8.16136896 51.8545183,7.48209241 51.4285714,6.9375 C51.0032813,6.48518217 50.3944072,6.24435156 49.7694236,6.28125 C49.1534964,6.2809963 48.5611267,6.51424186 48.1152882,6.93256579 C47.5853684,7.44757825 47.243455,8.12072012 47.1428571,8.84703947 L52.0150376,8.84703947 Z" id="Shape"></path>
                </g>
                <g id="MS-logotype" transform="translate(47.117794, 0.000000)" fill="#737373">
                    <path d="M16.7468672,1.48026316 L16.7468672,16.4358553 L14.1052632,16.4358553 L14.1052632,4.71217105 L14.0651629,4.71217105 L9.34837093,16.4358553 L7.59899749,16.4358553 L2.76691729,4.71217105 L2.73684211,4.71217105 L2.73684211,16.4358553 L0.295739348,16.4358553 L0.295739348,1.48026316 L4.0802005,1.48026316 L8.44611529,12.5674342 L8.52130326,12.5674342 L13.1177945,1.48026316 L16.7468672,1.48026316 Z M18.952381,2.61513158 C18.94314,2.2153847 19.1115518,1.83156703 19.4135338,1.56414474 C19.7090882,1.28753464 20.1035414,1.13682853 20.5112782,1.14473684 C20.9307064,1.12887706 21.33778,1.28630007 21.6340852,1.57894737 C21.9233424,1.84780685 22.0851128,2.22354824 22.0802005,2.61513158 C22.0861983,3.00751993 21.9199476,3.38338229 21.6240602,3.64638158 C21.3235953,3.924794 20.9238022,4.07547617 20.5112782,4.06578947 C20.0992868,4.07555265 19.7004303,3.92276667 19.4035088,3.64144737 C19.1107987,3.37869831 18.9465523,3.0050377 18.952381,2.61513158 L18.952381,2.61513158 Z M21.7794486,5.71381579 L21.7794486,16.4358553 L19.2180451,16.4358553 L19.2180451,5.71381579 L21.7794486,5.71381579 Z M29.5588972,14.5953947 C29.9927557,14.5858672 30.4210542,14.497196 30.8220551,14.3338816 C31.2713883,14.1652321 31.6948004,13.9360771 32.0802005,13.6529605 L32.0802005,16.0016447 C31.6422065,16.23118 31.1728852,16.3973628 30.6867168,16.4950658 C30.1256872,16.6181409 29.5522133,16.6777376 28.9774436,16.6726974 C27.5274506,16.7402295 26.1152469,16.2055144 25.0849949,15.1988655 C24.0547429,14.1922165 23.5010655,12.8060886 23.5588972,11.3782895 C23.4982823,9.81655402 24.0470906,8.29118984 25.0927318,7.11513158 C26.128655,5.99013158 27.5856307,5.42763158 29.4636591,5.42763158 C29.9557198,5.42816509 30.4457663,5.48949984 30.9223058,5.61019737 C31.3289486,5.70022789 31.7216751,5.8429178 32.0902256,6.03453947 L32.0902256,8.45230263 C31.7176918,8.17957137 31.3097188,7.95719867 30.877193,7.79111842 C30.4749482,7.63491464 30.0464483,7.55457091 29.6140351,7.55427632 C28.6911001,7.52235795 27.7985936,7.88168763 27.1629073,8.54111842 C26.5142893,9.25985106 26.1793403,10.2011353 26.2305764,11.1611842 C26.1746502,12.088973 26.4976821,13.0002918 27.1278195,13.6924342 C27.7766558,14.3210677 28.6649866,14.6507786 29.5739348,14.6003289 L29.5588972,14.5953947 Z M39.3934837,5.53121755 C39.5780328,5.53047242 39.7623693,5.54366924 39.9448622,5.57072368 C40.0867531,5.59371182 40.2260729,5.63006296 40.3609023,5.67927632 L40.3609023,8.24013158 C40.1795871,8.11822736 39.9800148,8.02499496 39.7694236,7.96381579 C39.4667227,7.86820634 39.1498926,7.82317559 38.8320802,7.83059211 C38.2053958,7.8325184 37.6156714,8.12277336 37.2380952,8.61513158 C36.7472906,9.32067662 36.5172739,10.1706327 36.5864662,11.0230263 L36.5864662,16.4506579 L34.0200501,16.4506579 L34.0200501,5.71381579 L36.5914787,5.71381579 L36.5914787,7.40131579 L36.6315789,7.40131579 C36.8396168,6.85037767 37.2095428,6.37286554 37.6942356,6.02960526 C38.1935334,5.69267497 38.7883548,5.51995305 39.3934837,5.53618421 L39.3934837,5.53121755 Z M40.4962406,11.2253289 C40.4142089,9.67617864 40.9646508,8.15902314 42.0250627,7.01151316 C43.0275689,5.97532895 44.4394319,5.45723684 46.2606516,5.45723684 C47.7511178,5.36179353 49.2114761,5.90087114 50.2706767,6.9375 C51.2707796,8.04626534 51.7875355,9.49786891 51.7092732,10.9786184 C51.7872092,12.5079264 51.2361425,14.003683 50.1804511,15.1282895 C49.0777418,16.1925012 47.572198,16.7527332 46.0300752,16.6726974 C44.5281406,16.7864283 43.0511666,16.2456024 41.9898671,15.1932877 C40.9285676,14.1409731 40.3898741,12.6831961 40.5162907,11.2055921 L40.4962406,11.2253289 Z M43.1679198,11.1414474 C43.1035057,12.0617761 43.3774897,12.9742128 43.9398496,13.7121711 C44.5052663,14.320405 45.3193569,14.6449419 46.1553885,14.5953947 C46.9669414,14.6463168 47.7557141,14.3192951 48.2857143,13.7121711 C48.8261993,12.9428736 49.0843208,12.0152771 49.0175439,11.0822368 C49.0878456,10.1497963 48.8196232,9.22306362 48.2606516,8.46710526 C47.7221962,7.86322573 46.9299671,7.53889539 46.1152882,7.58881579 C45.2783698,7.54619211 44.4688845,7.88899614 43.924812,8.51644737 C43.3679139,9.27902068 43.1000974,10.209589 43.1679198,11.1463816 L43.1679198,11.1414474 Z M55.5037594,8.52631579 C55.4863492,8.846554 55.6150039,9.15773772 55.8546366,9.375 C56.3276397,9.70797953 56.8478272,9.97065945 57.3984962,10.1546053 C58.2218366,10.4234726 58.9642744,10.8897841 59.5588972,11.5115132 C59.9748758,12.0323234 60.1929526,12.6798221 60.1754386,13.3421053 C60.2070656,14.2972262 59.7683921,15.2086405 58.9974937,15.7894737 C58.06895,16.4453203 56.9406114,16.7691318 55.7994987,16.7072368 C55.2940072,16.7020726 54.7902846,16.6475289 54.2957393,16.5444079 C53.8169684,16.4603638 53.3494669,16.3229669 52.9022556,16.1348684 L52.9022556,13.6677632 C53.3664042,13.9866476 53.8722446,14.242255 54.406015,14.4276316 C54.8742565,14.6021053 55.3691501,14.6972018 55.8696742,14.7088816 C56.3108299,14.7372912 56.752147,14.6558372 57.1528822,14.4720395 C57.4322664,14.3010327 57.5909565,13.9905166 57.5639098,13.6677632 C57.5675654,13.3244929 57.410402,12.9986966 57.1378446,12.7845395 C56.6389457,12.4312536 56.0900722,12.1519614 55.5087719,11.9555921 C54.7429302,11.6831878 54.0551407,11.2329543 53.5037594,10.6430921 C53.0938255,10.1091035 52.884781,9.45165958 52.9122807,8.78289474 C52.8956032,7.84999082 53.331157,6.96501047 54.085213,6.39967105 C54.946995,5.73548565 56.0189051,5.39133527 57.112782,5.42763158 C57.5433828,5.43130144 57.9728033,5.47258179 58.39599,5.55098684 C58.8031047,5.61547057 59.2015862,5.72470621 59.5839599,5.87664474 L59.5839599,8.28947368 C59.2130016,8.05199017 58.8140841,7.85979018 58.39599,7.71710526 C57.9661921,7.55916083 57.5113982,7.47730748 57.0526316,7.47532895 C56.6514841,7.45244985 56.2527906,7.55056582 55.9097744,7.75657895 C55.6469143,7.92783827 55.4931966,8.22112947 55.5037594,8.53125 L55.5037594,8.52631579 Z M61.2781955,11.2253289 C61.1961638,9.67617864 61.7466057,8.15902314 62.8070175,7.01151316 C63.8095238,5.97532895 65.2330827,5.45723684 67.0426065,5.45723684 C68.5330727,5.36179353 69.993431,5.90087114 71.0526316,6.9375 C72.0527345,8.04626534 72.5694904,9.49786891 72.4912281,10.9786184 C72.5691641,12.5079264 72.0180974,14.003683 70.962406,15.1282895 C69.8596967,16.1925012 68.3541529,16.7527332 66.8120301,16.6726974 C65.3100955,16.7864283 63.8331215,16.2456024 62.771822,15.1932877 C61.7105225,14.1409731 61.171829,12.6831961 61.2982456,11.2055921 L61.2781955,11.2253289 Z M63.9498747,11.1414474 C63.8854606,12.0617761 64.1594446,12.9742128 64.7218045,13.7121711 C65.2867984,14.3210036 66.1011923,14.6456614 66.9373434,14.5953947 C67.7488963,14.6463168 68.537669,14.3192951 69.0676692,13.7121711 C69.6081542,12.9428736 69.8662757,12.0152771 69.7994987,11.0822368 C69.8698004,10.1497963 69.6015781,9.22306362 69.0426065,8.46710526 C68.5095459,7.86704133 67.7259271,7.5413902 66.9172932,7.58388158 C66.0802356,7.54049224 65.2704205,7.88343595 64.726817,8.51151316 C64.161678,9.27280412 63.8866404,10.2055475 63.9498747,11.1463816 L63.9498747,11.1414474 Z M80.9924812,7.77138158 L77.1729323,7.77138158 L77.1729323,16.4309211 L74.5764411,16.4309211 L74.5764411,7.77631579 L72.7568922,7.77631579 L72.7568922,5.71381579 L74.5764411,5.71381579 L74.5764411,4.23355263 C74.5368351,3.19374443 74.9402322,2.18491104 75.6892231,1.45065789 C76.4565642,0.722668458 77.4913577,0.332670472 78.556391,0.370065789 C78.8328532,0.369603476 79.1090766,0.386082712 79.3834586,0.419407895 C79.5996267,0.445482936 79.8127842,0.491744001 80.0200501,0.557565789 L80.0200501,2.73848684 C79.877192,2.66593776 79.7278579,2.60647678 79.5739348,2.56085526 C79.337184,2.48804139 79.0901061,2.45305807 78.8421053,2.45723684 C78.3748647,2.42908876 77.9197572,2.61046384 77.60401,2.95065789 C77.2804711,3.37538702 77.125418,3.90169872 77.1679198,4.43092105 L77.1679198,5.72368421 L80.9874687,5.72368421 L80.9874687,3.30098684 L83.5639098,2.53125 L83.5639098,5.71381579 L86.160401,5.71381579 L86.160401,7.77631579 L83.5639098,7.77631579 L83.5639098,12.7944079 C83.5148883,13.2893213 83.6444322,13.7854257 83.9298246,14.1957237 C84.2340916,14.4890865 84.6534131,14.6368905 85.0776942,14.6003289 C85.2609734,14.5944185 85.4420822,14.5594292 85.6140351,14.4967105 C85.8061797,14.4357722 85.98975,14.3512235 86.160401,14.2450658 L86.160401,16.3322368 C85.9027791,16.4525056 85.6295226,16.5371866 85.3483709,16.5838816 C84.9804606,16.6577382 84.6060557,16.6957505 84.2305764,16.6973684 C83.3348621,16.7648533 82.4518848,16.4566078 81.7994987,15.8486842 C81.205792,15.1288577 80.9151568,14.2122974 80.9874687,13.2878289 L80.9924812,7.77138158 Z" id="Shape"></path>
                </g>
                <g id="MS-symbol" transform="translate(0.000000, 1.480263)">
                    <rect id="Rectangle" fill="#F25022" x="0.496240602" y="0" width="17.1528822" height="16.8848684"></rect>
                    <rect id="Rectangle" fill="#7FBA00" x="19.433584" y="0" width="17.1528822" height="16.8848684"></rect>
                    <rect id="Rectangle" fill="#00A4EF" x="0.496240602" y="18.6414474" width="17.1528822" height="16.8848684"></rect>
                    <rect id="Rectangle" fill="#FFB900" x="19.433584" y="18.6414474" width="17.1528822" height="16.8848684"></rect>
                    <rect id="Rectangle" fill="#F25022" x="0.496240602" y="0" width="17.1528822" height="16.8848684"></rect>
                    <rect id="Rectangle" fill="#7FBA00" x="19.433584" y="0" width="17.1528822" height="16.8848684"></rect>
                    <rect id="Rectangle" fill="#00A4EF" x="0.496240602" y="18.6414474" width="17.1528822" height="16.8848684"></rect>
                    <rect id="Rectangle" fill="#FFB900" x="19.433584" y="18.6414474" width="17.1528822" height="16.8848684"></rect>
                </g>
            </g>
        </g>
    </g>
</svg>