<?xml version="1.0" encoding="utf-8"?>
<!-- Generator: Adobe Illustrator 24.0.0, SVG Export Plug-In . SVG Version: 6.00 Build 0)  -->
<svg version="1.1" id="Layer_1" xmlns="http://www.w3.org/2000/svg" xmlns:xlink="http://www.w3.org/1999/xlink" x="0px" y="0px"
	 viewBox="0 0 196.1 166.9" style="enable-background:new 0 0 196.1 166.9;" xml:space="preserve">
<style type="text/css">
	.st0{fill:#238FFB;}
	.st1{fill:#2549C9;}
	.st2{fill:#86C1FD;}
</style>
<title>Asset 2</title>
<g id="Design">
	<path class="st0" d="M175,130.4c-0.4-0.6-1.1-1-1.8-1.1h-26.7c-0.7,0-1.4-0.4-1.8-1L98.6,50c-0.1-0.3-0.5-0.5-0.9-0.4
		c-0.2,0.1-0.3,0.2-0.4,0.4l-46,78.3c-0.4,0.6-1.1,1-1.8,1H22.9c-0.8,0-1.4,0.4-1.9,1l-6.1,10.4c-0.3,0.6-0.1,1.1,0.6,1.1h41.2
		c0.7,0,1.4-0.4,1.8-1.1l38.9-66.1c0.1-0.3,0.5-0.5,0.9-0.4c0.2,0.1,0.3,0.2,0.4,0.4l38.9,66.1c0.4,0.6,1.1,1,1.8,1.1h41.2
		c0.7,0,0.9-0.5,0.6-1.1L175,130.4z"/>
	<path class="st1" d="M195.9,165.9c0.3,0.6,0.1,1-0.6,1H125c-0.7,0-1.4-0.4-1.8-1l-24.5-41.7c-0.1-0.3-0.5-0.5-0.9-0.4
		c-0.2,0.1-0.3,0.2-0.4,0.4l-24.5,41.7c-0.4,0.6-1.1,1-1.8,1H0.7c-0.7,0-0.9-0.5-0.6-1l6.1-10.5c0.4-0.6,1.1-1,1.8-1h55.8
		c0.7,0,1.4-0.4,1.8-1l31.7-54c0.1-0.3,0.5-0.5,0.9-0.4c0.2,0.1,0.3,0.2,0.4,0.4l31.7,53.9c0.4,0.6,1.1,1,1.8,1h55.8
		c0.7,0,1.4,0.4,1.8,1L195.9,165.9z"/>
	<path class="st1" d="M98.6,149c-0.1-0.3-0.5-0.5-0.9-0.4c-0.2,0.1-0.3,0.2-0.4,0.4l-9.9,16.9c-0.3,0.6-0.1,1,0.6,1H108
		c0.7,0,0.9-0.5,0.6-1L98.6,149z"/>
	<path class="st2" d="M97.4,0.4c0.1-0.3,0.5-0.5,0.9-0.4c0.2,0.1,0.3,0.2,0.4,0.4l67.8,115.3c0.3,0.6,0.1,1-0.6,1h-12.1
		c-0.7,0-1.4-0.4-1.8-1L98.6,25.2c-0.1-0.3-0.5-0.5-0.9-0.4c-0.2,0.1-0.3,0.2-0.4,0.4l-53.2,90.5c-0.4,0.6-1.1,1-1.8,1H30.2
		c-0.7,0-0.9-0.5-0.6-1L97.4,0.4z"/>
</g>
</svg>
